<mxfile host="drawio-plugin" modified="2023-04-21T08:53:40.616Z" agent="5.0 (Windows NT 6.2; Win64; x64) AppleWebKit/537.36 (KHTML, like Gecko) Chrome/104.0.5112.102 Safari/537.36" etag="17OUUR92TAoh7Nh2UJmm" version="20.5.3" type="embed"><diagram id="BMgY-qU18UpSBjs10CeD" name="DataSourceRouting"><mxGraphModel dx="781" dy="289" grid="1" gridSize="10" guides="1" tooltips="1" connect="1" arrows="1" fold="1" page="1" pageScale="1" pageWidth="827" pageHeight="1169" math="0" shadow="0"><root><mxCell id="0"/><mxCell id="1" parent="0"/><mxCell id="3" value="DataSourceRoutingFilter" style="shape=umlLifeline;perimeter=lifelinePerimeter;whiteSpace=wrap;html=1;container=1;collapsible=0;recursiveResize=0;outlineConnect=0;lifelineDashed=0;" parent="1" vertex="1"><mxGeometry x="240" y="80" width="160" height="1080" as="geometry"/></mxCell><mxCell id="22" value="" style="html=1;points=[];perimeter=orthogonalPerimeter;" parent="3" vertex="1"><mxGeometry x="75" y="80" width="10" height="240" as="geometry"/></mxCell><mxCell id="4" value="DataSourceContext" style="shape=umlLifeline;perimeter=lifelinePerimeter;whiteSpace=wrap;html=1;container=1;collapsible=0;recursiveResize=0;outlineConnect=0;lifelineDashed=0;" parent="1" vertex="1"><mxGeometry x="600" y="80" width="120" height="1080" as="geometry"/></mxCell><mxCell id="21" value="" style="html=1;points=[];perimeter=orthogonalPerimeter;container=0;" parent="4" vertex="1"><mxGeometry x="55" y="280" width="10" height="40" as="geometry"/></mxCell><mxCell id="36" value="" style="html=1;points=[];perimeter=orthogonalPerimeter;container=0;" parent="4" vertex="1"><mxGeometry x="55" y="121" width="10" height="40" as="geometry"/></mxCell><mxCell id="38" value="" style="html=1;points=[];perimeter=orthogonalPerimeter;container=0;" parent="4" vertex="1"><mxGeometry x="55" y="200" width="10" height="40" as="geometry"/></mxCell><mxCell id="74" value="" style="html=1;points=[];perimeter=orthogonalPerimeter;container=0;" parent="4" vertex="1"><mxGeometry x="55" y="600" width="10" height="40" as="geometry"/></mxCell><mxCell id="81" value="" style="html=1;points=[];perimeter=orthogonalPerimeter;container=0;" parent="4" vertex="1"><mxGeometry x="55" y="680" width="10" height="40" as="geometry"/></mxCell><mxCell id="5" value="Actor" style="shape=umlLifeline;perimeter=lifelinePerimeter;whiteSpace=wrap;html=1;container=1;collapsible=0;recursiveResize=0;outlineConnect=0;lifelineDashed=0;" parent="1" vertex="1"><mxGeometry x="80" y="80" width="80" height="1080" as="geometry"/></mxCell><mxCell id="68" value="" style="html=1;points=[];perimeter=orthogonalPerimeter;labelBackgroundColor=none;strokeColor=default;fontFamily=Helvetica;fontSize=12;fontColor=default;fillColor=default;" parent="5" vertex="1"><mxGeometry x="35" y="80" width="10" height="680" as="geometry"/></mxCell><mxCell id="14" value="" style="edgeStyle=elbowEdgeStyle;fontSize=12;html=1;endArrow=blockThin;endFill=1;rounded=0;bendable=1;" parent="1" source="22" edge="1"><mxGeometry width="160" relative="1" as="geometry"><mxPoint x="285" y="360" as="sourcePoint"/><mxPoint x="655" y="360" as="targetPoint"/><Array as="points"><mxPoint x="390" y="360"/><mxPoint x="370" y="340"/><mxPoint x="400" y="380"/><mxPoint x="370" y="440"/></Array></mxGeometry></mxCell><mxCell id="24" value="&lt;div style=&quot;color: rgb(188, 190, 196); font-family: &amp;quot;JetBrains Mono&amp;quot;, monospace; font-size: 8px;&quot;&gt;DataSourceContextHolder.&lt;span style=&quot;font-style:italic;&quot;&gt;getContext&lt;/span&gt;&lt;span style=&quot;color:#e8ba36;&quot;&gt;()&lt;/span&gt;.clearDataSourceKey&lt;span style=&quot;color:#e8ba36;&quot;&gt;()&lt;/span&gt;&lt;/div&gt;" style="edgeLabel;html=1;align=center;verticalAlign=middle;resizable=0;points=[];labelBackgroundColor=default;" parent="14" vertex="1" connectable="0"><mxGeometry relative="1" as="geometry"><mxPoint y="-15" as="offset"/></mxGeometry></mxCell><mxCell id="31" value="" style="edgeStyle=elbowEdgeStyle;fontSize=12;html=1;endArrow=blockThin;endFill=1;rounded=0;bendable=1;" parent="1" source="68" target="22" edge="1"><mxGeometry width="160" relative="1" as="geometry"><mxPoint x="100" y="220" as="sourcePoint"/><mxPoint x="299.5" y="159.9999999999999" as="targetPoint"/><Array as="points"><mxPoint x="210" y="160"/><mxPoint x="40" y="160"/></Array></mxGeometry></mxCell><mxCell id="32" value="&lt;div style=&quot;color: rgb(188, 190, 196); font-family: &amp;quot;JetBrains Mono&amp;quot;, monospace; font-size: 9.8pt;&quot;&gt;&lt;span style=&quot;color: rgb(86, 168, 245); font-size: 13.0667px;&quot;&gt;doFilterInternal&lt;/span&gt;&lt;br&gt;&lt;/div&gt;" style="edgeLabel;html=1;align=center;verticalAlign=middle;resizable=0;points=[];labelBackgroundColor=default;" parent="31" vertex="1" connectable="0"><mxGeometry relative="1" as="geometry"><mxPoint y="-15" as="offset"/></mxGeometry></mxCell><mxCell id="37" value="return" style="html=1;verticalAlign=bottom;endArrow=open;dashed=1;endSize=8;rounded=0;exitX=-0.041;exitY=0.973;exitDx=0;exitDy=0;exitPerimeter=0;" parent="1" source="36" target="22" edge="1"><mxGeometry relative="1" as="geometry"><mxPoint x="655" y="240" as="sourcePoint"/><mxPoint x="285" y="240" as="targetPoint"/></mxGeometry></mxCell><mxCell id="39" value="return" style="html=1;verticalAlign=bottom;endArrow=open;dashed=1;endSize=8;rounded=0;exitX=0.028;exitY=1.016;exitDx=0;exitDy=0;exitPerimeter=0;" parent="1" source="38" target="22" edge="1"><mxGeometry relative="1" as="geometry"><mxPoint x="655" y="320.0000000000001" as="sourcePoint"/><mxPoint x="285" y="320.0000000000001" as="targetPoint"/></mxGeometry></mxCell><mxCell id="40" value="" style="edgeStyle=elbowEdgeStyle;fontSize=12;html=1;endArrow=blockThin;endFill=1;rounded=0;bendable=0;" parent="1" source="22" edge="1"><mxGeometry width="160" relative="1" as="geometry"><mxPoint x="285" y="281" as="sourcePoint"/><mxPoint x="655" y="281" as="targetPoint"/><Array as="points"><mxPoint x="560" y="281"/><mxPoint x="460" y="271"/><mxPoint x="450" y="270.8"/></Array></mxGeometry></mxCell><mxCell id="41" value="&lt;div style=&quot;color: rgb(188, 190, 196); font-family: &amp;quot;JetBrains Mono&amp;quot;, monospace;&quot;&gt;&lt;span style=&quot;color: rgb(199, 125, 187); font-style: italic;&quot;&gt;filterChain&lt;/span&gt;.doFilter&lt;span style=&quot;color: rgb(232, 186, 54);&quot;&gt;(&lt;/span&gt;&lt;span style=&quot;color: rgb(199, 125, 187); font-style: italic;&quot;&gt;request&lt;/span&gt;, &lt;span style=&quot;color: rgb(199, 125, 187); font-style: italic;&quot;&gt;response&lt;/span&gt;&lt;span style=&quot;color: rgb(232, 186, 54);&quot;&gt;)&lt;/span&gt;&lt;/div&gt;" style="edgeLabel;html=1;align=center;verticalAlign=middle;resizable=0;points=[];labelBackgroundColor=default;" parent="40" vertex="1" connectable="0"><mxGeometry relative="1" as="geometry"><mxPoint y="-15" as="offset"/></mxGeometry></mxCell><mxCell id="33" value="" style="edgeStyle=elbowEdgeStyle;fontSize=12;html=1;endArrow=blockThin;endFill=1;rounded=0;bendable=0;" parent="1" source="22" edge="1"><mxGeometry width="160" relative="1" as="geometry"><mxPoint x="285" y="201" as="sourcePoint"/><mxPoint x="655" y="201" as="targetPoint"/><Array as="points"><mxPoint x="520" y="201"/><mxPoint x="480" y="191"/><mxPoint x="650" y="191"/><mxPoint x="620" y="201"/><mxPoint x="445" y="191"/></Array></mxGeometry></mxCell><mxCell id="34" value="&lt;div style=&quot;color: rgb(188, 190, 196); font-family: &amp;quot;JetBrains Mono&amp;quot;, monospace;&quot;&gt;&lt;div style=&quot;&quot;&gt;tryGetDataSourceKey&lt;span style=&quot;color:#e8ba36;&quot;&gt;(&lt;/span&gt;&lt;span style=&quot;color:#c77dbb;font-style:italic;&quot;&gt;request&lt;/span&gt;&lt;span style=&quot;color:#e8ba36;&quot;&gt;)&lt;/span&gt;&lt;/div&gt;&lt;/div&gt;" style="edgeLabel;html=1;align=center;verticalAlign=middle;resizable=0;points=[];labelBackgroundColor=default;" parent="33" vertex="1" connectable="0"><mxGeometry relative="1" as="geometry"><mxPoint y="-15" as="offset"/></mxGeometry></mxCell><mxCell id="11" value="return" style="html=1;verticalAlign=bottom;endArrow=open;dashed=1;endSize=8;rounded=0;exitX=-0.041;exitY=1.033;exitDx=0;exitDy=0;exitPerimeter=0;" parent="1" source="21" target="22" edge="1"><mxGeometry relative="1" as="geometry"><mxPoint x="655" y="400" as="sourcePoint"/><mxPoint x="285" y="400" as="targetPoint"/></mxGeometry></mxCell><mxCell id="46" value="DataSourceRoutingAspect" style="shape=umlLifeline;perimeter=lifelinePerimeter;whiteSpace=wrap;html=1;container=1;collapsible=0;recursiveResize=0;outlineConnect=0;lifelineDashed=0;" parent="1" vertex="1"><mxGeometry x="1081" y="80" width="160" height="1080" as="geometry"/></mxCell><mxCell id="47" value="" style="html=1;points=[];perimeter=orthogonalPerimeter;container=0;" parent="46" vertex="1"><mxGeometry x="75" y="400" width="10" height="360" as="geometry"/></mxCell><mxCell id="49" value="" style="edgeStyle=elbowEdgeStyle;fontSize=12;html=1;endArrow=blockThin;endFill=1;rounded=0;bendable=0;entryX=0.000;entryY=0.000;entryDx=0;entryDy=0;entryPerimeter=0;" parent="1" source="68" edge="1" target="47"><mxGeometry width="160" relative="1" as="geometry"><mxPoint x="79.07142857142844" y="480" as="sourcePoint"/><mxPoint x="1145" y="480" as="targetPoint"/><Array as="points"><mxPoint x="780" y="480"/><mxPoint x="140" y="458"/><mxPoint x="100" y="456"/><mxPoint x="820" y="475"/><mxPoint x="900" y="694.9200000000001"/></Array></mxGeometry></mxCell><mxCell id="50" value="&lt;div style=&quot;color: rgb(188, 190, 196); font-family: &amp;quot;JetBrains Mono&amp;quot;, monospace;&quot;&gt;&lt;div style=&quot;&quot;&gt;&lt;div style=&quot;font-size: 9.8pt;&quot;&gt;&lt;div style=&quot;font-size: 9.8pt;&quot;&gt;&lt;span style=&quot;color:#56a8f5;&quot;&gt;dataSourceRouting(&lt;/span&gt;&lt;span style=&quot;color: rgb(199, 125, 187); font-style: italic; font-size: 9.8pt;&quot;&gt;point&lt;/span&gt;&lt;span style=&quot;color: rgb(86, 168, 245); font-size: 9.8pt;&quot;&gt;)&lt;/span&gt;&lt;/div&gt;&lt;/div&gt;&lt;/div&gt;&lt;/div&gt;" style="edgeLabel;html=1;align=center;verticalAlign=middle;resizable=0;points=[];labelBackgroundColor=default;" parent="49" vertex="1" connectable="0"><mxGeometry relative="1" as="geometry"><mxPoint y="-15" as="offset"/></mxGeometry></mxCell><mxCell id="51" value="&lt;div style=&quot;color: rgb(188, 190, 196); font-family: &amp;quot;JetBrains Mono&amp;quot;, monospace; font-size: 9.8pt;&quot;&gt;&lt;span style=&quot;color:#b3ae60;&quot;&gt;@DataSourceRouting&lt;/span&gt;&lt;/div&gt;" style="shape=umlLifeline;perimeter=lifelinePerimeter;whiteSpace=wrap;html=1;container=1;collapsible=0;recursiveResize=0;outlineConnect=0;lifelineDashed=0;labelBackgroundColor=none;" parent="1" vertex="1"><mxGeometry x="1350" y="80" width="160" height="1080" as="geometry"/></mxCell><mxCell id="53" value="" style="html=1;points=[];perimeter=orthogonalPerimeter;container=0;" parent="51" vertex="1"><mxGeometry x="75" y="438" width="10" height="40" as="geometry"/></mxCell><mxCell id="59" value="" style="html=1;points=[];perimeter=orthogonalPerimeter;container=0;" parent="51" vertex="1"><mxGeometry x="75" y="520" width="10" height="40" as="geometry"/></mxCell><mxCell id="54" value="return" style="html=1;verticalAlign=bottom;endArrow=open;dashed=1;endSize=8;rounded=0;exitX=0.000;exitY=1.000;exitDx=0;exitDy=0;exitPerimeter=0;" parent="1" source="53" target="47" edge="1"><mxGeometry relative="1" as="geometry"><mxPoint x="1206" y="796.9200000000001" as="sourcePoint"/><mxPoint x="929.9999999999998" y="558" as="targetPoint"/></mxGeometry></mxCell><mxCell id="55" value="" style="edgeStyle=elbowEdgeStyle;fontSize=12;html=1;endArrow=blockThin;endFill=1;rounded=0;bendable=0;entryX=0.000;entryY=0.000;entryDx=0;entryDy=0;entryPerimeter=0;exitX=0.932;exitY=0.118;exitDx=0;exitDy=0;exitPerimeter=0;" parent="1" source="47" target="53" edge="1"><mxGeometry width="160" relative="1" as="geometry"><mxPoint x="1166" y="535" as="sourcePoint"/><mxPoint x="1425" y="535" as="targetPoint"/><Array as="points"><mxPoint x="1160" y="497"/><mxPoint x="1230" y="497"/><mxPoint x="1160" y="497"/><mxPoint x="1000" y="495"/><mxPoint x="1096" y="514"/><mxPoint x="1176" y="733.9200000000001"/></Array></mxGeometry></mxCell><mxCell id="56" value="&lt;div style=&quot;color: rgb(188, 190, 196); font-family: &amp;quot;JetBrains Mono&amp;quot;, monospace;&quot;&gt;&lt;div style=&quot;&quot;&gt;&lt;div style=&quot;font-size: 9.8pt;&quot;&gt;&lt;div style=&quot;font-size: 12px;&quot;&gt;&lt;div style=&quot;&quot;&gt;&lt;span style=&quot;color:#c77dbb;font-style:italic;&quot;&gt;dataSourceRouting&lt;/span&gt;.priorityPolicy&lt;span style=&quot;color:#54a857;&quot;&gt;()&lt;/span&gt;&lt;/div&gt;&lt;/div&gt;&lt;/div&gt;&lt;/div&gt;&lt;/div&gt;" style="edgeLabel;html=1;align=center;verticalAlign=middle;resizable=0;points=[];labelBackgroundColor=default;" parent="55" vertex="1" connectable="0"><mxGeometry relative="1" as="geometry"><mxPoint y="-15" as="offset"/></mxGeometry></mxCell><mxCell id="75" value="return" style="html=1;verticalAlign=bottom;endArrow=open;dashed=1;endSize=8;rounded=0;exitX=1.024;exitY=1.004;exitDx=0;exitDy=0;exitPerimeter=0;" parent="1" source="74" target="47" edge="1"><mxGeometry relative="1" as="geometry"><mxPoint x="665" y="720" as="sourcePoint"/><mxPoint x="1145" y="720" as="targetPoint"/></mxGeometry></mxCell><mxCell id="76" value="" style="edgeStyle=elbowEdgeStyle;fontSize=12;html=1;endArrow=blockThin;endFill=1;rounded=0;bendable=0;" parent="1" source="47" target="74" edge="1"><mxGeometry width="160" relative="1" as="geometry"><mxPoint x="995" y="680" as="sourcePoint"/><mxPoint x="665" y="680" as="targetPoint"/><Array as="points"><mxPoint x="950" y="680"/><mxPoint x="930" y="730"/><mxPoint x="661" y="749"/><mxPoint x="741" y="968.9200000000001"/></Array></mxGeometry></mxCell><mxCell id="77" value="&lt;div style=&quot;color: rgb(188, 190, 196); font-family: &amp;quot;JetBrains Mono&amp;quot;, monospace; font-size: 12px;&quot;&gt;&lt;div style=&quot;font-size: 12px;&quot;&gt;&lt;div style=&quot;font-size: 12px;&quot;&gt;&lt;div style=&quot;font-size: 12px;&quot;&gt;&lt;div style=&quot;font-size: 12px;&quot;&gt;&lt;div style=&quot;font-size: 10px;&quot;&gt;&lt;div style=&quot;&quot;&gt;DataSourceContextHolder.&lt;span style=&quot;font-style:italic;&quot;&gt;getContext&lt;/span&gt;&lt;span style=&quot;color:#359ff4;&quot;&gt;()&lt;/span&gt;.getDataSourceKey&lt;span style=&quot;color:#359ff4;&quot;&gt;()&lt;/span&gt;&lt;/div&gt;&lt;/div&gt;&lt;/div&gt;&lt;/div&gt;&lt;/div&gt;&lt;/div&gt;&lt;/div&gt;" style="edgeLabel;html=1;align=center;verticalAlign=middle;resizable=0;points=[];labelBackgroundColor=default;fontSize=12;" parent="76" vertex="1" connectable="0"><mxGeometry relative="1" as="geometry"><mxPoint y="-15" as="offset"/></mxGeometry></mxCell><mxCell id="61" value="" style="edgeStyle=elbowEdgeStyle;fontSize=12;html=1;endArrow=blockThin;endFill=1;rounded=0;bendable=0;entryX=0.000;entryY=0.000;entryDx=0;entryDy=0;entryPerimeter=0;" parent="1" source="47" target="59" edge="1"><mxGeometry width="160" relative="1" as="geometry"><mxPoint x="1005.8800000000001" y="597.397" as="sourcePoint"/><mxPoint x="1216" y="835.9200000000001" as="targetPoint"/><Array as="points"><mxPoint x="1180" y="600"/><mxPoint x="1000" y="600"/><mxPoint x="1010" y="610"/><mxPoint x="1050" y="597"/><mxPoint x="1106" y="616"/><mxPoint x="1186" y="835.9200000000001"/></Array></mxGeometry></mxCell><mxCell id="62" value="&lt;div style=&quot;color: rgb(188, 190, 196); font-family: &amp;quot;JetBrains Mono&amp;quot;, monospace; font-size: 12px;&quot;&gt;&lt;div style=&quot;font-size: 12px;&quot;&gt;&lt;div style=&quot;font-size: 12px;&quot;&gt;&lt;div style=&quot;font-size: 12px;&quot;&gt;&lt;div style=&quot;font-size: 12px;&quot;&gt;&lt;div style=&quot;font-size: 12px;&quot;&gt;&lt;span style=&quot;color: rgb(199, 125, 187); font-style: italic; font-size: 12px;&quot;&gt;dataSourceRouting&lt;/span&gt;.key&lt;span style=&quot;color: rgb(53, 159, 244); font-size: 12px;&quot;&gt;()&lt;/span&gt;&lt;/div&gt;&lt;/div&gt;&lt;/div&gt;&lt;/div&gt;&lt;/div&gt;&lt;/div&gt;" style="edgeLabel;html=1;align=center;verticalAlign=middle;resizable=0;points=[];labelBackgroundColor=default;fontSize=12;" parent="61" vertex="1" connectable="0"><mxGeometry relative="1" as="geometry"><mxPoint y="-15" as="offset"/></mxGeometry></mxCell><mxCell id="60" value="return" style="html=1;verticalAlign=bottom;endArrow=open;dashed=1;endSize=8;rounded=0;exitX=0.000;exitY=1.000;exitDx=0;exitDy=0;exitPerimeter=0;" parent="1" source="59" target="47" edge="1"><mxGeometry relative="1" as="geometry"><mxPoint x="1216" y="875.9200000000001" as="sourcePoint"/><mxPoint x="1005" y="637.0000000000001" as="targetPoint"/></mxGeometry></mxCell><mxCell id="79" value="return" style="html=1;verticalAlign=bottom;endArrow=open;dashed=1;endSize=8;rounded=0;exitX=0.000;exitY=1.000;exitDx=0;exitDy=0;exitPerimeter=0;" parent="1" source="47" target="68" edge="1"><mxGeometry relative="1" as="geometry"><mxPoint x="1146" y="840" as="sourcePoint"/><mxPoint x="380" y="850" as="targetPoint"/><Array as="points"><mxPoint x="330" y="840"/></Array></mxGeometry></mxCell><mxCell id="83" value="" style="edgeStyle=elbowEdgeStyle;fontSize=12;html=1;endArrow=blockThin;endFill=1;rounded=0;bendable=0;" parent="1" source="47" target="81" edge="1"><mxGeometry width="160" relative="1" as="geometry"><mxPoint x="995" y="760" as="sourcePoint"/><mxPoint x="665" y="760" as="targetPoint"/><Array as="points"><mxPoint x="950" y="760"/><mxPoint x="930" y="810"/><mxPoint x="661" y="829"/><mxPoint x="741" y="1048.92"/></Array></mxGeometry></mxCell><mxCell id="84" value="&lt;div style=&quot;color: rgb(188, 190, 196); font-family: &amp;quot;JetBrains Mono&amp;quot;, monospace; font-size: 12px;&quot;&gt;&lt;div style=&quot;font-size: 12px;&quot;&gt;&lt;div style=&quot;font-size: 12px;&quot;&gt;&lt;div style=&quot;font-size: 12px;&quot;&gt;&lt;div style=&quot;font-size: 12px;&quot;&gt;&lt;div style=&quot;font-size: 10px;&quot;&gt;&lt;div style=&quot;&quot;&gt;&lt;div style=&quot;&quot;&gt;DataSourceContextHolder.&lt;span style=&quot;font-style:italic;&quot;&gt;getContext&lt;/span&gt;&lt;span style=&quot;color:#54a857;&quot;&gt;()&lt;/span&gt;.setDataSourceKey&lt;span style=&quot;color:#54a857;&quot;&gt;(&lt;/span&gt;&lt;span style=&quot;color:#c77dbb;font-style:italic;&quot;&gt;dataSourceRouting&lt;/span&gt;.key&lt;span style=&quot;color:#359ff4;&quot;&gt;()&lt;/span&gt;&lt;span style=&quot;color:#54a857;&quot;&gt;)&lt;/span&gt;&lt;/div&gt;&lt;/div&gt;&lt;/div&gt;&lt;/div&gt;&lt;/div&gt;&lt;/div&gt;&lt;/div&gt;&lt;/div&gt;" style="edgeLabel;html=1;align=center;verticalAlign=middle;resizable=0;points=[];labelBackgroundColor=default;fontSize=12;" parent="83" vertex="1" connectable="0"><mxGeometry relative="1" as="geometry"><mxPoint y="-15" as="offset"/></mxGeometry></mxCell><mxCell id="82" value="return" style="html=1;verticalAlign=bottom;endArrow=open;dashed=1;endSize=8;rounded=0;exitX=1;exitY=1;exitDx=0;exitDy=0;exitPerimeter=0;" parent="1" source="81" target="47" edge="1"><mxGeometry relative="1" as="geometry"><mxPoint x="670" y="790" as="sourcePoint"/><mxPoint x="1050" y="820" as="targetPoint"/></mxGeometry></mxCell></root></mxGraphModel></diagram></mxfile>